<svg width="113" height="81" viewBox="0 0 113 81" fill="none" xmlns="http://www.w3.org/2000/svg">
<g id="APK Nauta">
<path id="Vector" d="M111.741 10.4814C115.233 21.9615 107.698 37.5037 84.1099 55.4209C84.8838 51.4729 86.0425 47.1781 87.2151 42.9615C108.951 22.0963 106.555 3.96211 82.0833 4.09134L82.0691 4.08419C81.0267 3.48376 79.8916 2.95406 78.671 2.50223C84.5999 -0.42619 107.996 -1.83809 111.741 10.4814Z" fill="white"/>
<path id="Vector_2" d="M84.1085 55.421C81.9758 66.0648 82.5522 74.1243 92.7798 71.2178L92.7629 76.1418C92.7629 76.1418 68.6709 87.8044 63.2448 68.4661L63.2377 68.4448C68.6611 65.7988 73.8799 62.7543 78.6164 59.4239C80.5395 58.0733 82.356 56.7366 84.1085 55.421Z" fill="white"/>
<path id="Vector_3" d="M32.2619 78.4282C42.0864 77.0266 53.034 73.4404 63.2404 68.4448L63.2474 68.4661C63.2474 68.4661 57.1456 80.3752 42.3664 80.3245C38.4585 80.3111 35.0928 79.6317 32.2619 78.4282Z" fill="white"/>
<path id="Vector_4" d="M8.34986 57.4768C9.8494 63.6068 15.0942 67.476 22.5996 68.9299C24.454 73.1143 27.6542 76.4648 32.2589 78.4275C16.5695 80.6545 3.69882 77.3135 1.1255 65.2183C-3.83217 41.867 25.4062 25.44 26.2534 24.9669C25.6409 25.384 4.11776 40.1037 8.34986 57.4768Z" fill="white"/>
<path id="Vector_5" d="M65.7495 0.474773C70.8441 0.492247 75.1262 1.19616 78.6603 2.50147L78.6674 2.5015L82.0654 4.08346L82.0796 4.09061C88.6322 7.84344 91.6509 14.3766 91.6216 22.9101C91.6058 27.5286 89.3842 35.1238 87.2114 42.9608C84.6736 45.3892 81.8372 47.8522 78.6454 50.3353C72.7677 54.9052 66.7012 58.6148 60.7155 61.5359C60.9736 54.6587 65.6551 40.4355 65.6551 40.4355C65.6551 40.4355 42.9297 38.9862 42.8659 57.5951C42.849 62.5191 44.445 65.381 46.7773 66.9593C37.652 69.5996 29.2441 70.2174 22.5978 68.9298C21.2864 65.9766 20.6442 62.6135 20.6565 59.0324C20.6967 47.2943 30.3958 34.822 49.7159 34.7035C69.036 34.578 68.458 31.1654 68.8644 26.6264C69.2708 22.0803 69.4958 12.4177 55.2837 12.7526C41.0788 13.0805 36.5093 19.5023 36.5093 19.5023L36.547 8.51745C36.547 8.51745 47.7516 0.413043 65.7495 0.474773Z" fill="white"/>
</g>
</svg>
