<svg width="245" height="82" viewBox="0 0 245 82" fill="none" xmlns="http://www.w3.org/2000/svg">
<g id="Group">
<g id="XMLID_1_">
<g id="Group_2">
<path id="Vector" d="M243.957 64.0779C244.098 64.7285 243.958 65.3953 243.578 65.9577C243.158 66.566 242.491 66.9722 241.706 67.0903C240.283 67.3558 238.899 66.6032 238.336 65.2609C238.12 64.7597 237.422 64.4409 236.522 64.4379C235.45 64.4342 234.542 65.1731 234.539 66.0475C234.536 66.9219 235.439 67.6671 236.511 67.6707C238.557 67.6778 240.486 68.3689 241.938 69.6222C243.441 70.9159 244.226 72.5638 244.22 74.3874C244.207 78.0977 240.729 81.1059 236.465 81.0912C233.1 81.0797 229.995 79.0844 228.921 76.2447C228.711 75.7205 228.747 75.1339 229.036 74.5999C229.428 73.8822 230.226 73.3327 231.127 73.1575C232.475 72.9435 233.63 73.586 234.485 75.004C235.032 75.8803 235.422 76.0139 236.482 76.0176C237.571 76.0213 238.456 75.2823 238.46 74.3676C238.463 73.4875 237.559 72.7481 236.493 72.7444C234.441 72.7374 232.512 72.0405 231.061 70.7872C229.58 69.5626 228.772 67.8685 228.778 66.0278C228.791 62.3404 232.269 59.3495 236.539 59.3642C240.099 59.3764 243.427 61.4932 243.957 64.0779Z" fill="white"/>
<path id="Vector_2" d="M225.263 69.962L225.236 77.8199C225.231 79.3328 224.086 80.4736 222.579 80.4684C221.707 80.4654 220.735 79.8351 220.28 78.9074C218.717 79.9605 216.933 80.4491 214.749 80.4416C208.714 80.4209 204.007 75.7854 204.027 69.8892C204.048 63.8318 208.787 59.108 214.822 59.1287C220.697 59.1488 225.284 63.9047 225.263 69.962ZM214.767 75.2011C217.765 75.2114 220.037 72.9527 220.047 69.9441C220.057 66.8781 217.705 64.3734 214.804 64.3634C211.801 64.3531 209.259 66.8928 209.248 69.9071C209.238 72.8178 211.712 75.1906 214.767 75.2011Z" fill="white"/>
<path id="Vector_3" d="M224.552 25.4178C224.688 26.0683 224.554 26.7351 224.173 27.2918C223.753 27.9059 223.087 28.3121 222.301 28.4302C220.879 28.6957 219.494 27.9431 218.931 26.5951C218.715 26.0938 218.017 25.7808 217.111 25.7777C216.04 25.774 215.137 26.5073 215.134 27.3874C215.131 28.2618 216.028 29.0069 217.1 29.0106C219.152 29.0176 221.081 29.7088 222.533 30.9621C224.036 32.2558 224.821 33.898 224.815 35.7215C224.802 39.4376 221.324 42.44 217.054 42.4253C213.69 42.4138 210.59 40.4243 209.511 37.5846C209.3 37.0604 209.343 36.4738 209.631 35.9398C210.023 35.2221 210.822 34.6726 211.722 34.4973C213.07 34.2833 214.226 34.9258 215.08 36.3439C215.622 37.2201 216.017 37.3538 217.072 37.3574C218.161 37.3611 219.052 36.6164 219.055 35.7017C219.058 34.8274 218.155 34.0822 217.083 34.0785C215.037 34.0715 213.107 33.3803 211.65 32.127C210.176 30.9024 209.362 29.2084 209.368 27.3676C209.381 23.6803 212.864 20.6894 217.129 20.704C220.694 20.7163 224.023 22.8331 224.552 25.4178Z" fill="white"/>
<path id="Vector_4" d="M205.86 31.3019L205.833 39.154C205.828 40.6726 204.683 41.8077 203.176 41.8025C202.305 41.7995 201.333 41.1749 200.877 40.2472C199.309 41.2945 197.53 41.7832 195.341 41.7756C189.311 41.755 184.604 37.1253 184.624 31.229C184.645 25.1717 189.384 20.4478 195.414 20.4685C201.295 20.4887 205.881 25.2445 205.86 31.3019ZM195.359 36.5409C198.362 36.5512 200.628 34.2925 200.639 31.2839C200.649 28.2179 198.302 25.7132 195.396 25.7033C192.398 25.693 189.856 28.2326 189.846 31.2469C189.836 34.1577 192.309 36.5304 195.359 36.5409Z" fill="white"/>
<path id="Vector_5" d="M201.454 54.009L201.372 77.9795C201.367 79.4579 200.171 80.6561 198.692 80.651C197.219 80.646 196.025 79.4396 196.03 77.9612L196.113 53.9907C196.118 52.5066 197.32 51.3142 198.793 51.3192C200.271 51.3243 201.46 52.5249 201.454 54.009Z" fill="white"/>
<path id="Vector_6" d="M192.892 53.9795L192.81 77.95C192.805 79.4284 191.608 80.6266 190.13 80.6215C188.657 80.6164 187.463 79.4101 187.468 77.9317L187.55 53.9612C187.555 52.477 188.757 51.2846 190.23 51.2897C191.709 51.2948 192.897 52.4954 192.892 53.9795Z" fill="white"/>
<path id="Vector_7" d="M184.514 61.8145L184.459 77.8696C184.454 79.3307 183.286 80.5118 181.853 80.5068C180.375 80.5018 179.221 79.3358 179.226 77.8517L179.281 61.7965C179.286 60.3584 180.471 59.1947 181.927 59.1997C183.359 59.2046 184.519 60.3764 184.514 61.8145Z" fill="white"/>
<path id="Vector_8" d="M183.916 52.5798C184.418 53.0878 184.708 53.8078 184.706 54.5557C184.703 55.3035 184.408 56.0215 183.902 56.526C183.396 57.0305 182.679 57.3157 181.933 57.3131C181.188 57.3106 180.473 57.0205 179.97 56.5125C179.45 55.9873 179.143 55.2499 179.146 54.5366C179.148 53.829 179.46 53.088 179.989 52.5664C180.513 52.0447 181.248 51.7308 181.953 51.7332C182.663 51.7357 183.396 52.0546 183.916 52.5798Z" fill="white"/>
<path id="Vector_9" d="M181.81 28.3545L181.773 39.1461C181.768 40.6993 180.508 41.9547 178.961 41.9494C177.413 41.9441 176.162 40.68 176.168 39.1269L176.205 28.3352C176.209 26.9546 175.096 25.8233 173.714 25.8186C172.339 25.8139 171.211 26.9375 171.207 28.3181L171.17 39.1097C171.164 40.6629 169.91 41.9184 168.363 41.9131C166.815 41.9078 165.564 40.6437 165.57 39.0905L165.607 28.2989C165.622 23.8177 169.269 20.1831 173.734 20.1984C178.204 20.2138 181.826 23.8733 181.81 28.3545Z" fill="white"/>
<path id="Vector_10" d="M175.259 58.1647C176.807 58.1701 178.058 59.4111 178.053 60.9413C178.047 62.4887 176.788 63.7499 175.24 63.7446C171.996 63.7335 169.345 66.3706 169.333 69.6265L169.304 78.3012C169.298 79.8544 168.056 81.1099 166.537 81.1047C164.995 81.0994 163.739 79.8353 163.744 78.2821L163.774 69.6074C163.795 63.2739 168.949 58.1431 175.259 58.1647Z" fill="white"/>
<path id="Vector_11" d="M162.483 22.9615L162.428 39.0166C162.423 40.4777 161.255 41.6645 159.822 41.6596C158.344 41.6545 157.19 40.4828 157.195 38.9986L157.25 22.9435C157.255 21.5054 158.44 20.3417 159.895 20.3467C161.328 20.3516 162.488 21.5233 162.483 22.9615Z" fill="white"/>
<path id="Vector_12" d="M161.885 13.7266C162.387 14.2345 162.677 14.9546 162.675 15.7024C162.672 16.4502 162.377 17.1683 161.871 17.6727C161.365 18.1772 160.648 18.4624 159.902 18.4598C159.157 18.4573 158.442 18.1672 157.945 17.6593C157.419 17.134 157.112 16.3966 157.115 15.6833C157.117 14.9758 157.429 14.2348 157.958 13.7131C158.482 13.1914 159.217 12.8775 159.922 12.88C160.632 12.8824 161.365 13.2013 161.885 13.7266Z" fill="white"/>
<path id="Vector_13" d="M161.52 70.1114L161.493 77.9693C161.488 79.4822 160.343 80.623 158.836 80.6178C157.964 80.6149 156.992 79.9845 156.537 79.0625C154.974 80.1099 153.19 80.5985 151 80.591C144.971 80.5703 140.264 75.9349 140.284 70.0386C140.305 63.987 145.044 59.2574 151.073 59.2781C156.954 59.2983 161.54 64.0598 161.52 70.1114ZM151.018 75.3505C154.022 75.3608 156.294 73.1021 156.304 70.0935C156.314 67.0275 153.961 64.5286 151.055 64.5186C148.058 64.5083 145.516 67.0422 145.505 70.0565C145.495 72.9672 147.969 75.34 151.018 75.3505Z" fill="white"/>
<path id="Vector_14" d="M154.502 30.447L154.469 39.9098C154.45 45.4897 149.912 50.0129 144.353 49.9938C140.484 49.9806 137.012 47.7884 135.299 44.2793C134.69 42.9944 135.211 41.5235 136.48 40.9181C137.703 40.3068 139.203 40.8124 139.817 42.0513C140.682 43.8375 142.427 44.9423 144.37 44.9489C147.092 44.9583 149.37 42.7341 149.448 39.9904L149.451 39.1448C147.877 40.0598 146.15 40.5313 144.385 40.5253C138.825 40.5062 134.319 35.952 134.338 30.3779C134.357 24.798 138.895 20.2748 144.454 20.2939C150.014 20.3129 154.521 24.8671 154.502 30.447ZM149.481 30.4298C149.49 27.6284 147.229 25.3426 144.437 25.333C141.652 25.3235 139.374 27.5937 139.364 30.3951C139.355 33.1908 141.617 35.4766 144.402 35.4861C147.148 35.4955 149.471 33.1795 149.481 30.4298Z" fill="white"/>
<path id="Vector_15" d="M137.468 67.1703L137.431 77.9619C137.426 79.5151 136.166 80.7648 134.619 80.7595C133.071 80.7542 131.826 79.4958 131.831 77.9427L131.868 67.1511C131.873 65.7647 130.753 64.6391 129.378 64.6344C127.996 64.6297 126.875 65.7476 126.87 67.1339L126.833 77.9255C126.828 79.4787 125.568 80.7284 124.021 80.7231C122.473 80.7178 121.222 79.4595 121.228 77.9063L121.265 67.1147C121.269 65.7283 120.15 64.6028 118.774 64.598C117.393 64.5933 116.271 65.7112 116.267 67.0975L116.23 77.8892C116.224 79.4423 114.965 80.6921 113.417 80.6868C111.87 80.6815 110.619 79.4231 110.624 77.8699L110.661 67.0783C110.676 62.5914 114.323 58.9568 118.793 58.9721C120.822 58.9791 122.671 59.7448 124.088 60.9864C125.514 59.7545 127.368 59.0015 129.397 59.0085C133.862 59.0238 137.483 62.6833 137.468 67.1703Z" fill="white"/>
<path id="Vector_16" d="M133.466 18.3C133.618 18.9275 133.519 19.5772 133.173 20.134C132.873 20.691 132.356 21.1034 131.736 21.2796C131.524 21.3364 131.3 21.3702 131.082 21.3694C130.647 21.3679 130.217 21.2457 129.823 21.0142L125.727 18.6244C124.566 17.9473 124.175 16.4676 124.833 15.2618C125.507 14.1021 127.045 13.6932 128.195 14.3644L132.29 16.76C132.885 17.1072 133.302 17.6551 133.466 18.3Z" fill="white"/>
<path id="Vector_17" d="M132.056 31.0487L132.029 38.9008C132.024 40.4194 130.879 41.5545 129.372 41.5493C128.501 41.5464 127.523 40.9217 127.067 39.994C125.505 41.0414 123.72 41.53 121.537 41.5225C115.507 41.5018 110.8 36.8721 110.82 30.9758C110.841 24.9185 115.58 20.1947 121.61 20.2153C127.485 20.2355 132.077 24.9913 132.056 31.0487ZM121.554 36.2877C124.552 36.298 126.824 34.0393 126.834 31.0308C126.845 27.9647 124.492 25.46 121.592 25.4501C118.594 25.4398 116.046 27.9794 116.036 30.9937C116.026 33.9045 118.505 36.2773 121.554 36.2877Z" fill="white"/>
<path id="Vector_18" d="M107.805 69.9271L107.778 77.785C107.773 79.2979 106.628 80.4387 105.115 80.4335C104.244 80.4305 103.272 79.8002 102.816 78.8782C101.254 79.9255 99.4696 80.4141 97.2858 80.4066C91.2561 80.386 86.549 75.7505 86.5692 69.8543C86.59 63.8027 91.3292 59.0731 97.3589 59.0938C103.234 59.1139 107.826 63.8755 107.805 69.9271ZM97.3038 75.1662C100.301 75.1764 102.573 72.9177 102.584 69.9092C102.594 66.8431 100.241 64.3442 97.341 64.3343C94.3433 64.324 91.7954 66.8579 91.7851 69.8721C91.7751 72.7829 94.2545 75.1557 97.3038 75.1662Z" fill="white"/>
<path id="Vector_19" d="M97.354 20.1322C102.942 20.1513 107.472 24.7286 107.453 30.3315C107.434 35.9402 102.873 40.4863 97.2843 40.4671C95.496 40.461 93.7322 39.9775 92.1992 39.0806L92.171 47.3009C92.1662 48.6872 91.039 49.8108 89.6576 49.8061C88.2591 49.8013 87.1224 48.6699 87.1271 47.2836L87.1854 30.3023C87.2047 24.6591 91.7656 20.113 97.354 20.1322ZM102.409 30.3142C102.419 27.5013 100.145 25.1982 97.3367 25.1886C94.5339 25.179 92.239 27.4664 92.2294 30.2793L92.2292 30.3196C92.2197 33.1153 94.4988 35.3953 97.3016 35.405C100.11 35.4146 102.399 33.1329 102.409 30.3142Z" fill="white"/>
<path id="Vector_20" d="M47.4002 64.8248C50.2865 63.8855 52.1242 61.1996 52.134 58.3177L52.3633 58.3185L52.3602 59.2331C52.3472 63.024 55.3974 66.1063 59.1803 66.1193C62.9575 66.1322 66.0287 63.0709 66.0417 59.28L66.1111 39.0659C66.1625 24.0864 54.0588 11.8553 39.1334 11.8041C24.2024 11.7529 12.0151 23.9007 11.9637 38.8801C11.9123 53.8653 24.016 66.0964 38.947 66.1477C41.8301 66.1575 44.6746 65.7129 47.4002 64.8248ZM76.3937 39.1011L76.2632 77.1767C76.2571 78.9312 74.8365 80.3472 73.0884 80.3412C72.2745 80.3384 71.5592 80.0023 70.9992 79.4942C67.5779 75.9734 62.7994 73.7768 57.5091 73.7586C55.2164 73.7508 53.0083 74.1401 50.9653 74.8867C47.0285 76.2653 42.7902 77.0044 38.3825 76.9892C17.4618 76.9175 0.560101 59.8378 0.632116 38.8413C0.701013 18.7537 16.2789 2.36061 35.9434 1.03595C36.8377 0.975738 37.7377 0.950062 38.6433 0.953168C59.564 1.02492 76.4658 18.1046 76.3937 39.1011Z" fill="white"/>
<path id="Vector_21" d="M51.7998 56.1768C50.6315 52.5659 46.775 50.5911 43.1772 51.7638C41.8344 52.2021 40.4294 52.4216 38.9965 52.4167C31.6083 52.3914 25.6222 46.3422 25.6476 38.9273C25.673 31.5181 31.7005 25.5101 39.0887 25.5354C46.4711 25.5608 52.4572 31.6099 52.4318 39.0191L52.3656 58.3186L52.1364 58.3179C52.1388 57.6103 52.0267 56.8851 51.7998 56.1768Z" fill="white"/>
</g>
</g>
</g>
</svg>
