<svg width="66" height="96" viewBox="0 0 66 96" fill="none" xmlns="http://www.w3.org/2000/svg">
<g id="XMLID_1_">
<g id="Group">
<path id="Vector" d="M40.6124 33.2806L19.8403 52.3627C18.7887 50.4386 18.185 48.2653 18.1928 45.9688C18.2198 38.1046 25.2022 31.7631 33.7757 31.7925C36.2374 31.801 38.5501 32.3389 40.6124 33.2806Z" fill="white"/>
<path id="Vector_2" d="M37.4149 50.7987L48.3425 50.8361C46.1732 56.3394 40.4327 60.2689 33.6758 60.2457C31.7404 60.2391 29.8911 59.8965 28.1785 59.2866L37.4149 50.7987Z" fill="white"/>
<path id="Vector_3" d="M42.5756 43.562L26.3053 58.5166C24.1078 57.4092 22.2343 55.8413 20.8373 53.956L32.1856 43.5263L42.5756 43.562Z" fill="white"/>
<path id="Vector_4" d="M55.0745 32.549L54.9015 82.9707C54.8866 87.3187 51.3659 90.8342 47.0481 90.8193L15.216 90.7102L15.1987 95.7649L0.537547 82.1061L10.9208 72.5564L15.2921 68.5424L15.2747 73.6028L50.5757 73.7239L50.7032 36.563L55.0745 32.549ZM39.9753 82.2413C39.9773 81.6601 39.7471 81.135 39.3693 80.7519C38.9971 80.3688 38.4716 80.1333 37.8944 80.1314L34.0066 80.118L33.9922 84.3236L37.8799 84.337C39.0344 84.3409 39.9714 83.3981 39.9753 82.2413ZM31.7852 84.3161L31.7996 80.1104L27.9118 80.0971C26.7574 80.0932 25.8204 81.0302 25.8164 82.1928C25.8145 82.7683 26.0447 83.2991 26.4225 83.6822C26.7947 84.0653 27.3202 84.3007 27.8974 84.3027L31.7852 84.3161Z" fill="white"/>
<path id="Vector_5" d="M65.4903 13.8359L55.107 23.3856L50.7357 27.4053L50.7596 20.4586L15.4585 20.3375L15.3339 56.6778L10.9625 60.7146L11.1198 14.8519C11.1347 10.5038 14.6554 6.98839 18.9733 7.0032L50.8053 7.11238L50.8291 0.171423L65.4903 13.8359ZM38.1729 14.107L38.1754 13.3775C38.1765 13.0584 38.0473 12.773 37.8443 12.5672C37.7371 12.4585 37.6186 12.3727 37.4773 12.3152C37.3417 12.2577 37.1946 12.223 37.0362 12.2225L29.2381 12.1957C29.1588 12.1955 29.0796 12.2066 29.006 12.2177C28.485 12.3242 28.0929 12.7902 28.091 13.3429L28.0885 14.0724C28.0866 14.6308 28.4754 15.0995 28.9957 15.2038C29.0692 15.2212 29.1484 15.2329 29.2276 15.2331L37.0258 15.2599C37.1843 15.2547 37.3315 15.221 37.4675 15.1645C37.6092 15.108 37.7283 15.0229 37.8362 14.9207C38.0406 14.7106 38.1718 14.4261 38.1729 14.107Z" fill="white"/>
</g>
</g>
</svg>
